<?xml version="1.0" encoding="UTF-8"?>
<!DOCTYPE svg PUBLIC "-//W3C//DTD SVG 1.1//EN" "http://www.w3.org/Graphics/SVG/1.1/DTD/svg11.dtd">
<svg xmlns="http://www.w3.org/2000/svg" version="1.1" width="180px" height="180px" style="shape-rendering:geometricPrecision; text-rendering:geometricPrecision; image-rendering:optimizeQuality; fill-rule:evenodd; clip-rule:evenodd" xmlns:xlink="http://www.w3.org/1999/xlink">
<g><path style="opacity:0.981" fill="#010000" d="M 73.5,-0.5 C 84.1667,-0.5 94.8333,-0.5 105.5,-0.5C 145.167,9.16667 169.833,33.8333 179.5,73.5C 179.5,84.1667 179.5,94.8333 179.5,105.5C 169.833,145.167 145.167,169.833 105.5,179.5C 94.8333,179.5 84.1667,179.5 73.5,179.5C 33.8333,169.833 9.16667,145.167 -0.5,105.5C -0.5,94.8333 -0.5,84.1667 -0.5,73.5C 9.16667,33.8333 33.8333,9.16667 73.5,-0.5 Z"/></g>
<g><path style="opacity:1" fill="#bf0000" d="M 106.5,59.5 C 122.658,58.5036 138.991,58.1702 155.5,58.5C 155.5,61.1667 155.5,63.8333 155.5,66.5C 148.5,66.5 141.5,66.5 134.5,66.5C 140.979,65.5093 147.646,65.176 154.5,65.5C 154.5,63.5 154.5,61.5 154.5,59.5C 138.5,59.5 122.5,59.5 106.5,59.5 Z"/></g>
<g><path style="opacity:1" fill="#f20000" d="M 24.5,58.5 C 28.0297,57.9889 31.1963,58.6556 34,60.5C 37.0582,76.6665 40.7248,92.6665 45,108.5C 49.1763,92.1282 53.5097,75.7949 58,59.5C 61.0567,58.5495 64.2234,58.2161 67.5,58.5C 71.4933,74.979 75.9933,91.3123 81,107.5C 84.6636,91.8404 88.3302,76.1738 92,60.5C 94.8037,58.6556 97.9703,57.9889 101.5,58.5C 95.9893,79.0558 90.9893,99.7225 86.5,120.5C 83.1667,120.5 79.8333,120.5 76.5,120.5C 72.2133,103.737 67.5466,87.0703 62.5,70.5C 57.6602,87.0315 53.3268,103.698 49.5,120.5C 46.1667,120.5 42.8333,120.5 39.5,120.5C 34.5081,99.8522 29.5081,79.1855 24.5,58.5 Z"/></g>
<g><path style="opacity:1" fill="#fc0000" d="M 106.5,59.5 C 122.5,59.5 138.5,59.5 154.5,59.5C 154.5,61.5 154.5,63.5 154.5,65.5C 147.646,65.176 140.979,65.5093 134.5,66.5C 134.5,84.5 134.5,102.5 134.5,120.5C 131.833,120.5 129.167,120.5 126.5,120.5C 126.5,102.5 126.5,84.5 126.5,66.5C 119.833,66.5 113.167,66.5 106.5,66.5C 106.5,64.1667 106.5,61.8333 106.5,59.5 Z"/></g>
</svg>
